{
    "asset" : {
        "generator" : "Khronos glTF Blender I/O v3.4.50",
        "version" : "2.0"
    },
    "extensionsUsed" : [
        "KHR_materials_specular",
        "KHR_materials_ior",
        "KHR_materials_emissive_strength"
    ],
    "scene" : 0,
    "scenes" : [
        {
            "name" : "Scene",
            "nodes" : [
                0,
                1
            ]
        }
    ],
    "nodes" : [
        {
            "mesh" : 0,
            "name" : "Cube"
        },
        {
            "mesh" : 1,
            "name" : "Buildings"
        }
    ],
    "materials" : [
        {
            "doubleSided" : true,
            "name" : "Material",
            "pbrMetallicRoughness" : {
                "baseColorFactor" : [
                    0.800000011920929,
                    0.800000011920929,
                    0.800000011920929,
                    1
                ],
                "metallicFactor" : 0,
                "roughnessFactor" : 0.5
            }
        },
        {
            "doubleSided" : true,
            "extensions" : {
                "KHR_materials_specular" : {
                    "specularColorFactor" : [
                        0,
                        0,
                        0
                    ]
                },
                "KHR_materials_ior" : {
                    "ior" : 1.4500000476837158
                }
            },
            "name" : "Buildings_bake",
            "pbrMetallicRoughness" : {
                "baseColorTexture" : {
                    "index" : 0
                },
                "metallicFactor" : 0,
                "roughnessFactor" : 0.5
            }
        },
        {
            "doubleSided" : true,
            "emissiveFactor" : [
                1,
                1,
                1
            ],
            "emissiveTexture" : {
                "index" : 1
            },
            "extensions" : {
                "KHR_materials_emissive_strength" : {
                    "emissiveStrength" : 10
                }
            },
            "name" : "Boutlays",
            "normalTexture" : {
                "index" : 2
            },
            "pbrMetallicRoughness" : {
                "baseColorTexture" : {
                    "index" : 3
                },
                "metallicFactor" : 0,
                "roughnessFactor" : 0.5
            }
        },
        {
            "doubleSided" : true,
            "name" : "Bwindows",
            "normalTexture" : {
                "index" : 4
            },
            "pbrMetallicRoughness" : {
                "baseColorTexture" : {
                    "index" : 5
                },
                "metallicFactor" : 0,
                "roughnessFactor" : 0.5
            }
        },
        {
            "doubleSided" : true,
            "emissiveFactor" : [
                1,
                1,
                1
            ],
            "emissiveTexture" : {
                "index" : 6
            },
            "extensions" : {
                "KHR_materials_emissive_strength" : {
                    "emissiveStrength" : 10
                }
            },
            "name" : "Boutlays2",
            "normalTexture" : {
                "index" : 7
            },
            "pbrMetallicRoughness" : {
                "baseColorTexture" : {
                    "index" : 8
                },
                "metallicFactor" : 0,
                "roughnessFactor" : 0.5
            }
        }
    ],
    "meshes" : [
        {
            "name" : "Cube",
            "primitives" : [
                {
                    "attributes" : {
                        "POSITION" : 0,
                        "TEXCOORD_0" : 1,
                        "NORMAL" : 2
                    },
                    "indices" : 3,
                    "material" : 0
                }
            ]
        },
        {
            "name" : "Plane",
            "primitives" : [
                {
                    "attributes" : {
                        "POSITION" : 4,
                        "TEXCOORD_0" : 5,
                        "NORMAL" : 6
                    },
                    "indices" : 7,
                    "material" : 1
                },
                {
                    "attributes" : {
                        "POSITION" : 8,
                        "TEXCOORD_0" : 9,
                        "NORMAL" : 10
                    },
                    "indices" : 11,
                    "material" : 2
                },
                {
                    "attributes" : {
                        "POSITION" : 12,
                        "TEXCOORD_0" : 13,
                        "NORMAL" : 14
                    },
                    "indices" : 15,
                    "material" : 3
                },
                {
                    "attributes" : {
                        "POSITION" : 16,
                        "TEXCOORD_0" : 17,
                        "NORMAL" : 18
                    },
                    "indices" : 19,
                    "material" : 4
                }
            ]
        }
    ],
    "textures" : [
        {
            "sampler" : 0,
            "source" : 0
        },
        {
            "sampler" : 0,
            "source" : 1
        },
        {
            "sampler" : 0,
            "source" : 2
        },
        {
            "sampler" : 0,
            "source" : 2
        },
        {
            "sampler" : 0,
            "source" : 3
        },
        {
            "sampler" : 0,
            "source" : 3
        },
        {
            "sampler" : 0,
            "source" : 1
        },
        {
            "sampler" : 0,
            "source" : 2
        },
        {
            "sampler" : 0,
            "source" : 2
        }
    ],
    "images" : [
        {
            "bufferView" : 8,
            "mimeType" : "image/jpeg",
            "name" : "qwe2"
        },
        {
            "bufferView" : 13,
            "mimeType" : "image/jpeg",
            "name" : "outlays_emission"
        },
        {
            "bufferView" : 14,
            "mimeType" : "image/png",
            "name" : "outlays_albedo"
        },
        {
            "bufferView" : 19,
            "mimeType" : "image/jpeg",
            "name" : "windows_albedo"
        }
    ],
    "accessors" : [
        {
            "bufferView" : 0,
            "componentType" : 5126,
            "count" : 24,
            "max" : [
                1,
                1,
                1
            ],
            "min" : [
                -1,
                -1,
                -1
            ],
            "type" : "VEC3"
        },
        {
            "bufferView" : 1,
            "componentType" : 5126,
            "count" : 24,
            "type" : "VEC2"
        },
        {
            "bufferView" : 2,
            "componentType" : 5126,
            "count" : 24,
            "type" : "VEC3"
        },
        {
            "bufferView" : 3,
            "componentType" : 5123,
            "count" : 36,
            "type" : "SCALAR"
        },
        {
            "bufferView" : 4,
            "componentType" : 5126,
            "count" : 9126,
            "max" : [
                18.59576988220215,
                13.806474685668945,
                16.123504638671875
            ],
            "min" : [
                -34.20036697387695,
                -0.6108455657958984,
                -17.47762107849121
            ],
            "type" : "VEC3"
        },
        {
            "bufferView" : 5,
            "componentType" : 5126,
            "count" : 9126,
            "type" : "VEC2"
        },
        {
            "bufferView" : 6,
            "componentType" : 5126,
            "count" : 9126,
            "type" : "VEC3"
        },
        {
            "bufferView" : 7,
            "componentType" : 5123,
            "count" : 15858,
            "type" : "SCALAR"
        },
        {
            "bufferView" : 9,
            "componentType" : 5126,
            "count" : 104,
            "max" : [
                7.2316131591796875,
                11.384936332702637,
                8.055673599243164
            ],
            "min" : [
                -18.680679321289062,
                0.261380672454834,
                -6.374774932861328
            ],
            "type" : "VEC3"
        },
        {
            "bufferView" : 10,
            "componentType" : 5126,
            "count" : 104,
            "type" : "VEC2"
        },
        {
            "bufferView" : 11,
            "componentType" : 5126,
            "count" : 104,
            "type" : "VEC3"
        },
        {
            "bufferView" : 12,
            "componentType" : 5123,
            "count" : 156,
            "type" : "SCALAR"
        },
        {
            "bufferView" : 15,
            "componentType" : 5126,
            "count" : 52,
            "max" : [
                6.637138366699219,
                8.765798568725586,
                8.043318748474121
            ],
            "min" : [
                -21.61461067199707,
                0.6188139915466309,
                -6.192859649658203
            ],
            "type" : "VEC3"
        },
        {
            "bufferView" : 16,
            "componentType" : 5126,
            "count" : 52,
            "type" : "VEC2"
        },
        {
            "bufferView" : 17,
            "componentType" : 5126,
            "count" : 52,
            "type" : "VEC3"
        },
        {
            "bufferView" : 18,
            "componentType" : 5123,
            "count" : 78,
            "type" : "SCALAR"
        },
        {
            "bufferView" : 20,
            "componentType" : 5126,
            "count" : 16,
            "max" : [
                3.9944474697113037,
                2.4497926235198975,
                4.763253211975098
            ],
            "min" : [
                -5.447605609893799,
                0.33007049560546875,
                4.237053394317627
            ],
            "type" : "VEC3"
        },
        {
            "bufferView" : 21,
            "componentType" : 5126,
            "count" : 16,
            "type" : "VEC2"
        },
        {
            "bufferView" : 22,
            "componentType" : 5126,
            "count" : 16,
            "type" : "VEC3"
        },
        {
            "bufferView" : 23,
            "componentType" : 5123,
            "count" : 24,
            "type" : "SCALAR"
        }
    ],
    "bufferViews" : [
        {
            "buffer" : 0,
            "byteLength" : 288,
            "byteOffset" : 0,
            "target" : 34962
        },
        {
            "buffer" : 0,
            "byteLength" : 192,
            "byteOffset" : 288,
            "target" : 34962
        },
        {
            "buffer" : 0,
            "byteLength" : 288,
            "byteOffset" : 480,
            "target" : 34962
        },
        {
            "buffer" : 0,
            "byteLength" : 72,
            "byteOffset" : 768,
            "target" : 34963
        },
        {
            "buffer" : 0,
            "byteLength" : 109512,
            "byteOffset" : 840,
            "target" : 34962
        },
        {
            "buffer" : 0,
            "byteLength" : 73008,
            "byteOffset" : 110352,
            "target" : 34962
        },
        {
            "buffer" : 0,
            "byteLength" : 109512,
            "byteOffset" : 183360,
            "target" : 34962
        },
        {
            "buffer" : 0,
            "byteLength" : 31716,
            "byteOffset" : 292872,
            "target" : 34963
        },
        {
            "buffer" : 0,
            "byteLength" : 822379,
            "byteOffset" : 324588
        },
        {
            "buffer" : 0,
            "byteLength" : 1248,
            "byteOffset" : 1146968,
            "target" : 34962
        },
        {
            "buffer" : 0,
            "byteLength" : 832,
            "byteOffset" : 1148216,
            "target" : 34962
        },
        {
            "buffer" : 0,
            "byteLength" : 1248,
            "byteOffset" : 1149048,
            "target" : 34962
        },
        {
            "buffer" : 0,
            "byteLength" : 312,
            "byteOffset" : 1150296,
            "target" : 34963
        },
        {
            "buffer" : 0,
            "byteLength" : 154457,
            "byteOffset" : 1150608
        },
        {
            "buffer" : 0,
            "byteLength" : 706930,
            "byteOffset" : 1305068
        },
        {
            "buffer" : 0,
            "byteLength" : 624,
            "byteOffset" : 2012000,
            "target" : 34962
        },
        {
            "buffer" : 0,
            "byteLength" : 416,
            "byteOffset" : 2012624,
            "target" : 34962
        },
        {
            "buffer" : 0,
            "byteLength" : 624,
            "byteOffset" : 2013040,
            "target" : 34962
        },
        {
            "buffer" : 0,
            "byteLength" : 156,
            "byteOffset" : 2013664,
            "target" : 34963
        },
        {
            "buffer" : 0,
            "byteLength" : 147821,
            "byteOffset" : 2013820
        },
        {
            "buffer" : 0,
            "byteLength" : 192,
            "byteOffset" : 2161644,
            "target" : 34962
        },
        {
            "buffer" : 0,
            "byteLength" : 128,
            "byteOffset" : 2161836,
            "target" : 34962
        },
        {
            "buffer" : 0,
            "byteLength" : 192,
            "byteOffset" : 2161964,
            "target" : 34962
        },
        {
            "buffer" : 0,
            "byteLength" : 48,
            "byteOffset" : 2162156,
            "target" : 34963
        }
    ],
    "samplers" : [
        {
            "magFilter" : 9729,
            "minFilter" : 9987
        }
    ],
    "buffers" : [
        {
            "byteLength" : 2162204,
            "uri" : "data:application/octet-stream;base64,"
        }
    ]
}
