<svg width="500.00000000000006" height="500.00000000000006" xmlns="http://www.w3.org/2000/svg">

 <g>
  <title>Layer 1</title>
  <path id="svg_1" fill="#0077B7" d="m414.13603,58.5242l-325.17616,0c-19.83337,0 -35.91186,15.471 -35.91186,34.555l0,312.889c0,19.085 16.0785,34.556 35.91186,34.556l325.17512,0c19.83441,0 35.9129,-15.471 35.9129,-34.556l0,-312.889c0,-19.084 -16.0785,-34.555 -35.91186,-34.555zm-238.23942,329.844c0,5.554 -4.67878,10.056 -10.45087,10.056l-44.48685,0c-5.77209,0 -10.45087,-4.502 -10.45087,-10.056l0,-179.441c0,-5.554 4.67878,-10.056 10.45087,-10.056l44.48685,0c5.77209,0 10.45087,4.502 10.45087,10.056l0,179.441zm-32.69429,-206.412c-23.34089,0 -42.26282,-18.207 -42.26282,-40.666s18.92193,-40.666 42.26282,-40.666s42.26282,18.207 42.26282,40.666s-18.92089,40.666 -42.26282,40.666zm265.18137,207.222c0,5.106 -4.30256,9.246 -9.60906,9.246l-47.73768,0c-5.3065,0 -9.60906,-4.14 -9.60906,-9.246l0,-84.168c0,-12.556 3.82762,-55.021 -34.10146,-55.021c-29.4206,0 -35.38807,29.066 -36.58635,42.11l0,97.079c0,5.106 -4.30152,9.246 -9.60906,9.246l-46.17046,0c-5.3065,0 -9.60906,-4.14 -9.60906,-9.246l0,-181.061c0,-5.106 4.30256,-9.246 9.60906,-9.246l46.17046,0c5.3065,0 9.60906,4.14 9.60906,9.246l0,15.655c10.90918,-15.753 27.12174,-27.912 61.64099,-27.912c76.44014,0 76.00261,68.716 76.00261,106.472l0,86.846l0,0z"/>
  <g id="svg_2"/>
  <g id="svg_3"/>
  <g id="svg_4"/>
  <g id="svg_5"/>
  <g id="svg_6"/>
  <g id="svg_7"/>
  <g id="svg_8"/>
  <g id="svg_9"/>
  <g id="svg_10"/>
  <g id="svg_11"/>
  <g id="svg_12"/>
  <g id="svg_13"/>
  <g id="svg_14"/>
  <g id="svg_15"/>
  <g id="svg_16"/>
 </g>
</svg>