<svg xmlns="http://www.w3.org/2000/svg" viewBox="0 0 158.75 26.5"><defs><style>.cls-1{fill:#009fb9;}</style></defs><g id="Layer_2" data-name="Layer 2"><g id="图层_1" data-name="图层 1"><path class="cls-1" d="M0,19.31l4.12-.4a5,5,0,0,0,1.51,3,4.53,4.53,0,0,0,3.06,1,4.72,4.72,0,0,0,3.09-.87,2.57,2.57,0,0,0,1-2,1.92,1.92,0,0,0-.43-1.27,3.49,3.49,0,0,0-1.53-.91c-.49-.17-1.62-.47-3.39-.91a11.58,11.58,0,0,1-4.77-2.08A5.44,5.44,0,0,1,.76,10.66a5.36,5.36,0,0,1,.91-3A5.59,5.59,0,0,1,4.28,5.54a10.45,10.45,0,0,1,4.13-.73c2.63,0,4.61.57,5.94,1.73a6.07,6.07,0,0,1,2.09,4.62l-4.23.18A3.59,3.59,0,0,0,11.05,9a4.29,4.29,0,0,0-2.68-.71,4.8,4.8,0,0,0-2.89.76,1.53,1.53,0,0,0-.68,1.3,1.59,1.59,0,0,0,.63,1.27A11.1,11.1,0,0,0,9.32,13a20.57,20.57,0,0,1,4.57,1.51,5.9,5.9,0,0,1,2.32,2.13A6.23,6.23,0,0,1,17.05,20a6.18,6.18,0,0,1-1,3.38,5.94,5.94,0,0,1-2.83,2.33,11.67,11.67,0,0,1-4.56.77,9.08,9.08,0,0,1-6.11-1.84A8,8,0,0,1,0,19.31Z"/><path class="cls-1" d="M25.32,26.13V8.71H19.1V5.16H35.76V8.71h-6.2V26.13Z"/><path class="cls-1" d="M37.11,15.77a13.3,13.3,0,0,1,1-5.37,9.65,9.65,0,0,1,2-2.88,8.24,8.24,0,0,1,2.71-1.88,11.36,11.36,0,0,1,4.52-.83,9.81,9.81,0,0,1,7.41,2.87c1.86,1.92,2.78,4.58,2.78,8s-.92,6-2.76,8a9.75,9.75,0,0,1-7.37,2.87,9.88,9.88,0,0,1-7.44-2.86A10.82,10.82,0,0,1,37.11,15.77Zm4.36-.14A7.89,7.89,0,0,0,43.11,21a5.66,5.66,0,0,0,8.34,0q1.62-1.82,1.62-5.47a7.88,7.88,0,0,0-1.58-5.37,5.85,5.85,0,0,0-8.42,0A8,8,0,0,0,41.47,15.63Z"/><path class="cls-1" d="M60.79,26.13v-21h4.12l8.58,14v-14h3.93v21H73.17L64.72,12.46V26.13Z"/><path class="cls-1" d="M82,26.13v-21h4.24v9.31l8.55-9.31h5.69l-7.89,8.17,8.32,12.8H95.38l-5.76-9.84-3.43,3.5v6.34Z"/><path class="cls-1" d="M122,26.13h-4.6l-1.83-4.76h-8.38l-1.73,4.76h-4.49l8.16-21h4.48Zm-7.79-8.3-2.89-7.78-2.83,7.78Z"/><path class="cls-1" d="M124.14,26.13v-21h6.33l3.81,14.3L138,5.16h6.35v21h-3.93V9.63l-4.16,16.5h-4.08l-4.15-16.5v16.5Z"/><path class="cls-1" d="M153.32,0A5.55,5.55,0,0,1,156,.7a5,5,0,0,1,2,2,5.48,5.48,0,0,1,.73,2.73,5.56,5.56,0,0,1-.71,2.7,5,5,0,0,1-2,2,5.53,5.53,0,0,1-2.71.72,5.46,5.46,0,0,1-2.7-.72,5,5,0,0,1-2-2,5.46,5.46,0,0,1-.72-2.7,5.59,5.59,0,0,1,.73-2.73,5.06,5.06,0,0,1,2-2A5.55,5.55,0,0,1,153.32,0Zm0,.9a4.65,4.65,0,0,0-2.23.59,4.23,4.23,0,0,0-1.7,1.68,4.63,4.63,0,0,0-.61,2.27,4.57,4.57,0,0,0,.6,2.25,4.27,4.27,0,0,0,1.69,1.68,4.54,4.54,0,0,0,4.51,0,4.16,4.16,0,0,0,1.67-1.68,4.57,4.57,0,0,0,.6-2.25,4.52,4.52,0,0,0-.61-2.27,4.14,4.14,0,0,0-1.69-1.68A4.68,4.68,0,0,0,153.32.9Zm-2.38,7.54V2.59h2a4.83,4.83,0,0,1,1.49.17,1.4,1.4,0,0,1,.73.56,1.52,1.52,0,0,1-.18,2,1.82,1.82,0,0,1-1.22.54,1.43,1.43,0,0,1,.5.31,6.57,6.57,0,0,1,.87,1.16l.71,1.14H154.7l-.52-.92a4.76,4.76,0,0,0-1-1.36,1.23,1.23,0,0,0-.76-.2h-.55V8.44Zm.94-3.29H153a1.89,1.89,0,0,0,1.12-.24.83.83,0,0,0,.29-.65.77.77,0,0,0-.14-.47.87.87,0,0,0-.4-.3,2.91,2.91,0,0,0-1-.1h-1.07Z"/></g></g></svg>